<?xml version="1.0" encoding="UTF-8" standalone="no"?>
<!-- Generator: Adobe Illustrator 15.0.0, SVG Export Plug-In . SVG Version: 6.00 Build 0)  -->

<svg
   xmlns:dc="http://purl.org/dc/elements/1.1/"
   xmlns:cc="http://creativecommons.org/ns#"
   xmlns:rdf="http://www.w3.org/1999/02/22-rdf-syntax-ns#"
   xmlns:svg="http://www.w3.org/2000/svg"
   xmlns="http://www.w3.org/2000/svg"
   xmlns:sodipodi="http://sodipodi.sourceforge.net/DTD/sodipodi-0.dtd"
   xmlns:inkscape="http://www.inkscape.org/namespaces/inkscape"
   version="1.1"
   id="Layer_1"
   x="0px"
   y="0px"
   width="32"
   height="32"
   viewBox="0 0 32 32"
   xml:space="preserve"
   sodipodi:docname="app.svg"
   inkscape:version="0.92.4 (5da689c313, 2019-01-14)"
   inkscape:export-xdpi="96.000000"
   inkscape:export-ydpi="96.000000"
   id="metadata4556"><rdf:RDF><cc:Work
       rdf:about=""><dc:format>image/svg+xml</dc:format><dc:type
         rdf:resource="http://purl.org/dc/dcmitype/StillImage" /><dc:title /></cc:Work></rdf:RDF></metadata><defs
   id="defs4554" /><sodipodi:namedview
   pagecolor="#ffffff"
   bordercolor="#666666"
   borderopacity="1"
   objecttolerance="10"
   gridtolerance="10"
   guidetolerance="10"
   inkscape:pageopacity="0"
   inkscape:pageshadow="2"
   inkscape:window-width="1858"
   inkscape:window-height="1057"
   id="namedview4552"
   showgrid="false"
   inkscape:pagecheckerboard="true"
   inkscape:zoom="29.6"
   inkscape:cx="16"
   inkscape:cy="16"
   inkscape:window-x="-8"
   inkscape:window-y="-8"
   inkscape:window-maximized="1"
   inkscape:current-layer="Layer_1" />


<g
   id="g845"><circle
     r="7"
     cy="12"
     cx="16"
     id="path827"
     style="opacity:1;fill:#ffffff;fill-opacity:1;stroke:none;stroke-width:0;stroke-linecap:round;stroke-miterlimit:4;stroke-dasharray:none;stroke-dashoffset:0;stroke-opacity:1" /><g
     transform="matrix(0.88235294,0,0,0.88235294,-0.76470586,-0.76470586)"
     id="g4590"><g
       id="g4579"><rect
         ry="0.042700753"
         y="27"
         x="16.5"
         height="8"
         width="5"
         id="rect4570"
         style="opacity:1;fill:#ffffff;fill-opacity:1;stroke:none;stroke-width:0;stroke-linecap:round;stroke-miterlimit:4;stroke-dasharray:none;stroke-dashoffset:0;stroke-opacity:1" /><rect
         style="opacity:1;fill:#ffffff;fill-opacity:1;stroke:none;stroke-width:0;stroke-linecap:round;stroke-miterlimit:4;stroke-dasharray:none;stroke-dashoffset:0;stroke-opacity:1"
         id="rect4572"
         width="10"
         height="2"
         x="14"
         y="33.5"
         ry="0.010675188" /><rect
         ry="0.010675188"
         y="32"
         x="16"
         height="2"
         width="6"
         id="rect4574"
         style="opacity:1;fill:#ffffff;fill-opacity:1;stroke:none;stroke-width:0;stroke-linecap:round;stroke-miterlimit:4;stroke-dasharray:none;stroke-dashoffset:0;stroke-opacity:1" /></g><path
       id="path4562"
       class="stshockcolor"
       d="m 14,15 c 0,-2.76 2.24,-5 5,-5 2.76,0 5,2.24 5,5 0,0.343 -0.035,0.677 -0.101,1 h 8.05 C 31.975,15.669 32,15.337 32,15 32,7.821 26.179,2 19,2 11.821,2 6,7.821 6,15 c 0,0.337 0.025,0.669 0.051,1 h 8.05 C 14.035,15.677 14,15.343 14,15 Z"
       style="fill:#ffffff;fill-opacity:1"
       inkscape:connector-curvature="0" /><path
       id="268154983_shock_x5F_color_grid"
       class="stshockcolor"
       d="m 24,15 c 0,2.76 -2.24,5 -5,5 -2.76,0 -5,-2.24 -5,-5 0,-0.343 0.035,-0.677 0.101,-1 H 6.051 C 6.025,14.331 6,14.663 6,15 c 0,7.179 5.821,13 13,13 7.179,0 13,-5.821 13,-13 0,-0.337 -0.025,-0.669 -0.051,-1 h -8.05 C 23.965,14.323 24,14.657 24,15 Z"
       style="fill:#b598d1"
       inkscape:connector-curvature="0" /><path
       inkscape:connector-curvature="0"
       class="st0"
       d="M 22,29.938 V 27.65 C 27.727,26.293 32,21.135 32,15 32,7.832 26.168,2 19,2 11.832,2 6,7.832 6,15 c 0,5.396 3.307,10.033 8,11.996 v -2.21 C 10.444,22.961 8,19.265 8,15 8,8.935 12.935,4 19,4 c 6.065,0 11,4.935 11,11 0,6.065 -4.935,11 -11,11 -1.041,0 -2.045,-0.155 -3,-0.427 v 4.365 C 16,31.589 13.809,33.313 12.721,34 H 8 v 2 H 30 V 34 H 25.279 C 24.232,33.337 22,31.585 22,29.938 Z M 15.938,34 C 17,32.957 18,31.548 18,29.938 v -1.977 c 0.66,0.051 1.34,0.051 2,0 v 1.977 c 0,1.609 1,3.019 2.062,4.062 z M 26,15 c 0,-3.86 -3.141,-7 -7,-7 -3.86,0 -7,3.14 -7,7 0,3.859 3.14,7 7,7 3.859,0 7,-3.141 7,-7 z m -12,0 c 0,-2.757 2.243,-5 5,-5 2.757,0 5,2.243 5,5 0,2.757 -2.243,5 -5,5 -2.757,0 -5,-2.243 -5,-5 z"
       style="opacity:1;fill:#000000;fill-opacity:1;stroke:none"
       id="path4549" /></g></g>
</svg>